 http://www.imdb.com/title/tt2168910/
 
http://en.wikipedia.org/wiki/Cocktail_(2012_film)


Format                                   : Matroska
Format version                           : Version 2
File size                                : 895 MiB
Duration                                 : 2h 24mn
Overall bit rate                         : 864 Kbps


Video
ID                                       : 1
Format                                   : AVC
Format/Info                              : Advanced Video Codec
Format profile                           : High@L4.1
Format settings, CABAC                   : Yes
Format settings, ReFrames                : 4 frames
Muxing mode                              : Header stripping
Codec ID                                 : V_MPEG4/ISO/AVC
Duration                                 : 2h 24mn
Bit rate                                 : 800 Kbps
Width                                    : 1 280 pixels
Height                                   : 544 pixels
Display aspect ratio                     : 2.35:1
Original display aspect ratio            : 2.35:1
Frame rate                               : 23.976 fps
Color space                              : YUV
Chroma subsampling                       : 4:2:0
Bit depth                                : 8 bits
Stream size                              : 811 MiB (91%)


Audio
ID                                       : 2
Format                                   : AC-3
Bit rate mode                            : Constant
Bit rate                                 : 64.0 Kbps
Channel(s)                               : 2 channels
Channel positions                        : Front: L R
Sampling rate                            : 48.0 KHz
Bit depth                                : 16 bits
Compression mode                         : Lossy
Stream size                              : 66.3 MiB (7%)
 
http://www.shotpix.com/images/93339715401127314625.png
 
http://www.shotpix.com/images/98184973318892334704.png
 
http://www.shotpix.com/images/73872068357465702144.png
 
http://www.shotpix.com/images/45290573714618339201.png
 
http://www.shotpix.com/images/07737478374819521051.png
 
http://www.shotpix.com/images/75603925372838142081.png
 
http://www.shotpix.com/images/63440507656485678685.png
                          
                                      
                                 Check the Sample First